<?xml version="1.0" encoding="UTF-8"?>
<!DOCTYPE svg PUBLIC "-//W3C//DTD SVG 1.1//EN" "http://www.w3.org/Graphics/SVG/1.1/DTD/svg11.dtd">
<!-- Creator: CorelDRAW 2019 (64-Bit) -->
<?xml-stylesheet href="vs_site_address.css" type="text/css"?>
<svg xmlns="http://www.w3.org/2000/svg" xml:space="preserve" width="0.545783in" height="0.644055in" version="1.1" style="shape-rendering:geometricPrecision; text-rendering:geometricPrecision; image-rendering:optimizeQuality; fill-rule:evenodd; clip-rule:evenodd"
viewBox="0 0 22.44 26.48"
 xmlns:xlink="http://www.w3.org/1999/xlink"
 xmlns:xodm="http://www.corel.com/coreldraw/odm/2003">
 <g id="Layer_x0020_1">
  <metadata id="CorelCorpID_0Corel-Layer"/>
  <path class="fil1" d="M11.22 0c6.19,0 11.22,5.02 11.22,11.22 0,3.63 -1.73,6.86 -4.4,8.91l-2.73 2.55 -4.08 3.8 -4.08 -3.8 -2.73 -2.55c-2.68,-2.05 -4.4,-5.28 -4.4,-8.91 0,-6.2 5.02,-11.22 11.22,-11.22zm-0 5.78c2.22,0 4.02,1.8 4.02,4.02 0,2.22 -1.8,4.02 -4.02,4.02 -2.22,0 -4.02,-1.8 -4.02,-4.02 0,-2.22 1.8,-4.02 4.02,-4.02z"/>
 </g>
</svg>
