<?xml version="1.0" encoding="UTF-8"?>
<!DOCTYPE svg PUBLIC "-//W3C//DTD SVG 1.1//EN" "http://www.w3.org/Graphics/SVG/1.1/DTD/svg11.dtd">
<!-- Creator: CorelDRAW 2019 (64-Bit) -->
<?xml-stylesheet href="vs_site_contact.css" type="text/css"?>
<svg xmlns="http://www.w3.org/2000/svg" xml:space="preserve" width="0.612024in" height="0.612024in" version="1.1" style="shape-rendering:geometricPrecision; text-rendering:geometricPrecision; image-rendering:optimizeQuality; fill-rule:evenodd; clip-rule:evenodd"
viewBox="0 0 39.58 39.58"
 xmlns:xlink="http://www.w3.org/1999/xlink"
 xmlns:xodm="http://www.corel.com/coreldraw/odm/2003">
 <g id="Layer_x0020_1">
  <metadata id="CorelCorpID_0Corel-Layer"/>
  <path class="fil0" d="M19.79 0c10.93,0 19.79,8.86 19.79,19.79 0,10.93 -8.86,19.79 -19.79,19.79 -10.93,0 -19.79,-8.86 -19.79,-19.79 0,-10.93 8.86,-19.79 19.79,-19.79zm2.92 28.47l0.63 0c0.1,-0.04 0.45,-0.05 0.59,-0.08 1.12,-0.19 1.86,-0.6 2.69,-1.3 0.07,-0.05 0.09,-0.09 0.16,-0.16l0.53 -0.46c0.13,-0.12 0.22,-0.18 0.33,-0.34 0.5,-0.72 0.09,-1.3 -0.37,-1.85l-0.68 -0.63c-0.06,-0.04 -0.13,-0.11 -0.18,-0.16 -0.34,-0.31 -0.96,-0.8 -1.32,-0.99 -1.51,-0.8 -2.05,0.1 -2.74,0.65 -0.15,0.11 -0.19,0.2 -0.33,0.33 -0.12,0.11 -0.19,0.2 -0.35,0.3 -0.66,0.44 -1.46,0.07 -1.97,-0.27 -0.53,-0.36 -1.33,-1.09 -1.74,-1.58 -0.1,-0.12 -0.21,-0.23 -0.31,-0.35 -0.61,-0.75 -1.18,-1.41 -1.58,-2.39 -0.13,-0.33 -0.23,-0.75 -0.15,-1.13 0.13,-0.59 0.56,-0.78 0.92,-1.06l0.71 -0.63c0.12,-0.12 0.2,-0.19 0.3,-0.34 0.44,-0.66 0.28,-1.39 -0.05,-2.07 -0.22,-0.46 -0.95,-1.61 -1.29,-2.03 -0.26,-0.32 -0.6,-0.67 -1.02,-0.78l-0.14 -0.04 -0.2 0c-0.3,0.14 -0.38,0 -0.97,0.55 -0.41,0.39 -0.89,0.68 -1.28,1.19 -0.67,0.87 -1.01,1.63 -1.17,2.8 -0.18,1.34 0.23,3.02 0.78,4.13 0.65,1.3 1.05,1.92 1.92,3.06 0.07,0.09 0.15,0.19 0.23,0.28l0.67 0.8 1.72 1.76c0.35,0.32 0.71,0.61 1.08,0.9 0.81,0.62 1.88,1.25 2.89,1.56 0.26,0.08 0.5,0.14 0.79,0.2 0.17,0.04 0.81,0.09 0.88,0.12z"/>
 </g>
</svg>
